<?xml version="1.0" encoding="utf-8"?>
<!-- Generator: Adobe Illustrator 16.0.0, SVG Export Plug-In . SVG Version: 6.00 Build 0)  -->
<!DOCTYPE svg PUBLIC "-//W3C//DTD SVG 1.1//EN" "http://www.w3.org/Graphics/SVG/1.1/DTD/svg11.dtd">
<svg version="1.1" id="图层_1" xmlns="http://www.w3.org/2000/svg" xmlns:xlink="http://www.w3.org/1999/xlink" x="0px" y="0px"
	 width="512px" height="512px" viewBox="0 0 512 512" enable-background="new 0 0 512 512" xml:space="preserve">
<path fill="#3C5A99" d="M512,452c0,33.137-26.863,60-60,60H60c-33.137,0-60-26.863-60-60V60C0,26.863,26.863,0,60,0h392
	c33.137,0,60,26.863,60,60V452z"/>
<path id="f_2_" fill="#FFFFFF" d="M353.273,512V313.725h66.552l9.965-77.273h-76.517v-49.333c0-22.371,6.212-37.617,38.292-37.617
	l40.917-0.018V80.371c-7.075-0.943-31.364-3.046-59.623-3.046c-58.993,0-99.383,36.01-99.383,102.142v56.984h-66.723v77.273h66.723
	V512H353.273z"/>
</svg>
