<?xml version="1.0" encoding="utf-8"?>
<!-- Generator: Adobe Illustrator 16.0.0, SVG Export Plug-In . SVG Version: 6.00 Build 0)  -->
<!DOCTYPE svg PUBLIC "-//W3C//DTD SVG 1.1//EN" "http://www.w3.org/Graphics/SVG/1.1/DTD/svg11.dtd">
<svg version="1.1" id="图层_1" xmlns="http://www.w3.org/2000/svg" xmlns:xlink="http://www.w3.org/1999/xlink" x="0px" y="0px"
	 width="512px" height="512px" viewBox="0 0 512 512" enable-background="new 0 0 512 512" xml:space="preserve">
<path fill="#DC4E41" d="M512,452c0,33.137-26.863,60-60,60H60c-33.137,0-60-26.863-60-60V60C0,26.863,26.863,0,60,0h392
	c33.137,0,60,26.863,60,60V452z"/>
<path fill="#FFFFFF" d="M55.258,258.358c-2.482-65.528,54.912-126.082,120.508-126.871c33.434-2.849,65.957,10.13,91.261,31.308
	c-10.382,11.412-20.941,22.69-32.22,33.25c-22.277-13.532-49.093-23.844-75.12-14.686c-41.99,11.955-67.416,61.531-51.878,102.603
	c12.865,42.901,65.044,66.44,105.939,48.423c21.171-7.582,35.132-27.122,41.26-48.111c-24.268-0.488-48.541-0.183-72.809-0.854
	c-0.059-14.438-0.123-28.823-0.059-43.262c40.471-0.059,81.001-0.182,121.531,0.183c2.484,35.374-2.73,73.237-25.732,101.631
	c-31.488,40.53-89.678,52.426-137.006,36.522C90.697,361.996,54.17,311.391,55.258,258.358z M382.555,203.749h36.098
	c0.065,12.078,0.183,24.214,0.248,36.281c12.072,0.124,24.208,0.183,36.28,0.242v36.163l-36.28,0.183
	c-0.124,12.136-0.183,24.209-0.248,36.345c-12.072-0.06-24.153,0-36.162,0c-0.118-12.136-0.118-24.209-0.241-36.286
	c-12.072-0.124-24.21-0.178-36.287-0.247v-36.163c12.077-0.06,24.155-0.118,36.287-0.242
	C382.308,227.963,382.432,215.827,382.555,203.749z"/>
</svg>
