<?xml version="1.0" encoding="utf-8"?>
<!-- Generator: Adobe Illustrator 16.0.0, SVG Export Plug-In . SVG Version: 6.00 Build 0)  -->
<!DOCTYPE svg PUBLIC "-//W3C//DTD SVG 1.1//EN" "http://www.w3.org/Graphics/SVG/1.1/DTD/svg11.dtd">
<svg version="1.1" id="圖層_1" xmlns="http://www.w3.org/2000/svg" xmlns:xlink="http://www.w3.org/1999/xlink" x="0px" y="0px"
	 width="48px" height="48px" viewBox="0 0 48 48" enable-background="new 0 0 48 48" xml:space="preserve">
<path d="M12.053,31.09l5.579-2.79l-1.298-0.648v-2.667l0.665-0.667v-3.333c0-1.655-1.341-3-2.999-3c-1.657,0-3,1.345-3,3v3.333
	l0.667,0.667v2.667l-5.333,2.666v2.667H11.5v-1C11.5,31.605,11.714,31.26,12.053,31.09z"/>
<path d="M41.668,30.317l-5.334-2.666v-2.667l0.665-0.667v-3.333c0-1.655-1.341-3-2.999-3c-1.656,0-3,1.345-3,3v3.333l0.667,0.667
	v2.667l-1.299,0.649l5.579,2.789c0.339,0.17,0.553,0.516,0.553,0.895v1h5.168V30.317z"/>
<path d="M35.5,31.984l-8-4v-4l1-1v-5c0-2.485-2.015-4.5-4.5-4.5s-4.5,2.015-4.5,4.5v5l1,1v4l-8,4v4h23V31.984z"/>
</svg>
