<?xml version="1.0" encoding="utf-8"?>
<!-- Generator: Adobe Illustrator 16.0.0, SVG Export Plug-In . SVG Version: 6.00 Build 0)  -->
<!DOCTYPE svg PUBLIC "-//W3C//DTD SVG 1.1//EN" "http://www.w3.org/Graphics/SVG/1.1/DTD/svg11.dtd">
<svg version="1.1" id="圖層_1" xmlns="http://www.w3.org/2000/svg" xmlns:xlink="http://www.w3.org/1999/xlink" x="0px" y="0px"
	 width="48px" height="48px" viewBox="0 0 48 48" enable-background="new 0 0 48 48" xml:space="preserve">
<path d="M0.001,37.108h5.25v-1.5c0-0.568,0.321-1.087,0.831-1.342l8.366-4.185l-1.946-0.972v-4.001l0.998-1v-4.999
	c0-2.482-2.011-4.5-4.498-4.5c-2.485,0-4.5,2.018-4.5,4.5v4.999l1,1v4.001l-5.499,2.75L0.001,37.108z"/>
<path d="M48.001,31.857l-5.503-2.75v-3.998l0.998-1.001v-4.999c0-2.482-2.012-4.5-4.499-4.5c-2.483,0-4.498,2.018-4.498,4.5v4.999
	l1,1.001v3.998l-1.948,0.975l8.368,4.184c0.508,0.254,0.828,0.774,0.828,1.343v1.5h5.25L48.001,31.857z"/>
<path d="M41.248,35.608l-11.999-6v-6l1.5-1.5v-7.5c0-3.727-3.023-6.749-6.75-6.749c-3.727,0-6.75,3.022-6.75,6.749v7.5l1.5,1.5v6
	l-11.999,6v5.999h34.497V35.608z"/>
</svg>
