<?xml version="1.0" encoding="utf-8"?>
<!-- Generator: Adobe Illustrator 16.0.0, SVG Export Plug-In . SVG Version: 6.00 Build 0)  -->
<!DOCTYPE svg PUBLIC "-//W3C//DTD SVG 1.1//EN" "http://www.w3.org/Graphics/SVG/1.1/DTD/svg11.dtd">
<svg version="1.1" id="图层_1" xmlns="http://www.w3.org/2000/svg" xmlns:xlink="http://www.w3.org/1999/xlink" x="0px" y="0px"
	 width="512px" height="512px" viewBox="0 0 512 512" enable-background="new 0 0 512 512" xml:space="preserve">
<path fill="#1DA1F2" d="M512,452c0,33.137-26.863,60-60,60H60c-33.137,0-60-26.863-60-60V60C0,26.862,26.863,0,60,0h392
	c33.137,0,60,26.862,60,60V452z"/>
<path id="path3611_1_" fill="#FFFFFF" d="M190.746,438.905c151.057,0,233.654-125.337,233.654-234.019
	c0-3.56-0.073-7.104-0.232-10.631c16.032-11.61,29.974-26.101,40.964-42.592c-14.712,6.549-30.552,10.96-47.157,12.951
	c16.951-10.186,29.967-26.293,36.106-45.496c-15.866,9.422-33.436,16.267-52.146,19.965c-14.982-15.988-36.318-25.985-59.939-25.985
	c-45.35,0-82.125,36.834-82.125,82.238c0,6.456,0.716,12.734,2.125,18.755c-68.253-3.44-128.771-36.17-169.27-85.936
	c-7.058,12.153-11.123,26.273-11.123,41.34c0,28.536,14.498,53.729,36.545,68.464c-13.477-0.417-26.126-4.12-37.191-10.287
	c-0.015,0.346-0.015,0.682-0.015,1.051c0,39.834,28.305,73.092,65.886,80.629c-6.902,1.885-14.164,2.896-21.652,2.896
	c-5.282,0-10.432-0.522-15.436-1.484c10.452,32.68,40.771,56.462,76.713,57.126c-28.109,22.065-63.51,35.207-101.997,35.207
	c-6.616,0-13.161-0.377-19.587-1.139c36.346,23.333,79.502,36.947,125.88,36.947"/>
</svg>
